<?xml version="1.0" encoding="utf-8"?>
<!-- Generator: Adobe Illustrator 18.0.0, SVG Export Plug-In . SVG Version: 6.00 Build 0)  -->
<!DOCTYPE svg PUBLIC "-//W3C//DTD SVG 1.1//EN" "http://www.w3.org/Graphics/SVG/1.1/DTD/svg11.dtd">
<svg version="1.1" id="Слой_2" xmlns="http://www.w3.org/2000/svg" xmlns:xlink="http://www.w3.org/1999/xlink" x="0px" y="0px"
	 viewBox="0 314 1590 406" enable-background="new 0 314 1590 406" xml:space="preserve">
<path fill="#000000"    d="M1568.4,639.5l-41.6,0.7v2.8l-19.2,3.4l-37.5-4.9
	l-273.9,0.4c0,0-8.3-13.2-13.2-22.4c-4.9-9.1-8.3-4.9-8.3-4.9l-15.4-17.9l-6.6-2.1v-4.2l-4.2-1.1l-2.8-2.8l-4.9,1.1l-8.1-9.1
	l-6.6-1.1V569l-2.1-5.3l-11.1-1.1l-3.4-4.5l-8.7,0.4l0.4-9.1l2.8-1.7v-8.3l-14,3.8l0.4,4.9l4.5,0.4l-2.8,10.2l-14.3,1.5l-4.9,15.4
	l-7,1.5c0,0,1.1-1.5,0-5.6c-1.1-4.2-4.2-3.4-4.2-3.4s0,0-13.2,0.4c-1.6,0-2.9,0.3-4,0.5c4.5-3.7,5.7-10.7,5.7-10.7l-31.1-1.7
	l-1.7-33.3c0,0-35.4-0.7-42.7,1.1c-7.3,1.7-18.9,9.1-18.9,9.1l-4.9-5.6l-10.2-1.1c0,0-3.2-4.5-9.4-4.9c-6.4-0.4-9.8,3.8-9.8,3.8
	l-74.2-6l-10.5,32.5c0,0-5.3,0.4-9.4,1.9c-4.2,1.5-4.5,8.7-4.5,8.7l-7.7-0.4l-1.7-4.9l-2.8,0.7v5.3l-18.2,0.4l-1.7-17.5l5.6-8.3
	l22.4-7.7l0.4,6.4l3.8,0.7v-32.9l-3.8-1.5v-6.4l-3.4-0.4v14.3l-28,16v-2.8l-3.4-0.7c0,0-0.1-14-0.1-17.1s-5.3-4.5-5.3-4.5
	s4.2-6.4,5.3-19.9c1.1-13.6-5.3-17.5-5.6-21.3c-0.4-3.8-0.4-8.1-3.4-6c-3.2,2.1,1.1,6.6-2.8,8.1c-3.8,1.5,0.4,2.4-2.8,5.6
	c-3.2,3.2-4.2,10.5-4.2,10.5s-1.7-0.7-8.3,1.7s-7.3,5.6-7.3,5.6l-1.7,0.4V456H747v30.3l-5.2,1.2l1.1,9.1l4.1,0.1V539l-0.3,0.8
	l-10.2,22.4l-11.1-4.9v9.1l-2.4,10.9l2.4,5.6l-7,25.8c0,0-31.5,0-32.9,0.4c-1.5,0.4-1.7-42.7-1.7-42.7l-2.8,3.4h-6l-3.4-3.4
	l-2.1,3.4h-6.6l-4.2-1.7v29.4l-7-0.4l-2.4-24.5c0,0-3.8-7-7.7-6.4c-3.8,0.7-4.2,5.3-4.2,5.3s-3.4-5.6-7.7-5.3
	c-4.2,0.4-4.5,4.9-4.5,4.9v15.1l-9.8,0.7l-5.3-1.7l-0.7-13.2l-11.1,2.4v-11.9l-3.2-23.5l17.1-1.1l2.8-30.7l3.4-1.1l-1.7-27.3
	l-8.7-0.7l-0.4-4.2H589l-1.1-6.6l7-11.9l-1.7-14.7l7.7-0.4l8.7-8.1l-9.8-0.5v-94.2h4v-15.4h-10.7v15.4h4.2v94.1l-11.3-0.7l-1.6-6.6
	l-11.9-4.2c0,0,7.7-1.5,10.9-2.1c3.2-0.7,3.8-2.8,0-9.8c-3.8-7-12.6-6-18.5-5.3c-6,0.7-7,5.3-7,9.8s11.1,7.7,11.1,7.7l-11.9,3.8v6.4
	h-10.5l5.6,10.5l-1.1,13.6l2.8,11.5l-4.2,16.8l-21.3,1.7l-2.1-5.6l3.8-7.7h-12.6v7.7l-2.1,10.2l0.4,3.8l17.5,3.4h10.5l-15,39.2
	l-47.6-0.4l-2.4-21.7l-7.3,1.1c0,0,1.7-2.8,1.7-3.8c0-1.1,0-4.9,0-4.9l-2.8-5.6l2.8-1.7v-6l-10.9,0.4l-4.9-3.8v14.7l4.5-1.5
	c0,0,0.7-4.2,0,4.2c-0.4,5.3-0.3,6.6-0.1,7h-5.4l-6.6,20.7l-11.9-0.3v-14.2h2.8v-7.2h-7.4v7.2h2.4v14.2l-17.2-0.4v-3.2
	c0,0-1.5-8.1-6-8.1c-4.5,0-4.5,4.5-4.5,4.5v-4.5v-9.7h-7.3V523l-7.8,12.9h-7.3l-3.8,2.8l1.7,8.3h2.8l3.8,9.4l-11.1,29.7l-46.9,0.7
	l-28,3.2l-2.8,8.1l2.8,10.5l-3.4,8.7l-26.2,0.4v-4.9l-14,2.4l10.9-35.1c0,0-6.4,0.5-14,0.1c-7.7-0.4-25.2-0.4-31.1,2.8
	c-2.8,1.5-7.3,7.8-11.4,14.2h-41.1v1.5h40.1c-4.5,7.2-8.3,14-8.3,14s-14,1.1-28.4,0.4C162.4,612.5,4,608.6,4,608.6
	s3.8,4.5,10.5,10.9c6.6,6.4,82.5,81.9,82.5,81.9l7.7,7.3H1504h9.8l15.4-33.5c0,0,17.5-11.5,22-15.1c4.5-3.6,36-13.2,36-13.2
	L1568.4,639.5z M766.6,502c0,0-1.7,0-2.4,1.5c-0.7,1.5,2.4,6.4,2.4,6.4l-4.5,1.5l-4.5,13l-6.6,1.5l-3.8,12.2v-40.7l3.4,0.1l16,2.1
	L766.6,502L766.6,502z M988.1,576.8l-32.9-34.6l56.7-14l2.4,27.7l-44.4-2.4c0,0,9.4,14,14,15.4c4.6,1.3,46.2,3.2,55,2.1
	c0.8-0.1,1.6-0.4,2.4-0.7c-2.5,3,1.9,8.3,1.9,8.3L988.1,576.8z"/>
</svg>
