<?xml version="1.0" encoding="utf-8"?>
<!-- Generator: Adobe Illustrator 18.0.0, SVG Export Plug-In . SVG Version: 6.00 Build 0)  -->
<!DOCTYPE svg PUBLIC "-//W3C//DTD SVG 1.1//EN" "http://www.w3.org/Graphics/SVG/1.1/DTD/svg11.dtd">
<svg version="1.1" id="Слой_2" xmlns="http://www.w3.org/2000/svg" xmlns:xlink="http://www.w3.org/1999/xlink" x="0px" y="0px"
	 viewBox="0 41 1200 745" enable-background="new 0 41 1200 745" xml:space="preserve">
<circle fill="#000000"    cx="373.1" cy="692.5" r="15.3"/>
<circle fill="#000000"    cx="429.4" cy="693.5" r="15.3"/>
<circle fill="#000000"    cx="485.8" cy="696.6" r="15.3"/>
<circle fill="#000000"    cx="260.4" cy="685.3" r="15.3"/>
<circle fill="#000000"    cx="316.7" cy="689.4" r="15.3"/>
<circle fill="#000000"    cx="204" cy="680.2" r="15.3"/>
<circle fill="#000000"    cx="147.7" cy="676.1" r="15.3"/>
<circle fill="#000000"    cx="654.8" cy="704.8" r="15.3"/>
<circle fill="#000000"    cx="598.5" cy="703.7" r="15.3"/>
<path fill="#000000"    d="M1191.9,688.8h-12.8l-11.8-11c0,0-8.2,4.1-18.4-2.6
	c-10.2-6.7-34.3-30.5-34.3-30.5l-20.2-10.5l-237.5-1.8v-13.6h-21.2v7.4h-10.2v-6.7l-13.6-1v-9.5l-42-1l-1.3,49.9h-6.1l1.3-20.2
	l-15.1-0.5v4.6h-7.9l-21.8-111.1l-0.5-0.6V297.9l10.8-6.6h-10.8v-2h-5.1v234.9L675,478.6l-7.7-0.4v-92.8l9.5-13.3v-11.8l-18.9,23.5
	v93.9l-4.6-0.2v-8.7h-4.4V366.5l7.9-15.9l15.4-61.4l-46.6,71.7v108h-9.2v6.9l-15.1-0.7l12-98.3l-20.2-16.6l1-68.9l12.3-9.2l0.3-4.1
	l-6.7-1.5V235l16.4-2.3c0,0,0.5-6.9-3.1-13.3c-3.6-6.4-19.5-4.4-19.5-4.4l3.9-155.8c3.2-0.4,8.3-1.4,10-4.4c2.6-4.6,0.5-8.2-2.6-7.2
	c-1.8,0.6-4.9,2.4-7.2,3.9l0-1.6h-12.3l-1.1,14.6l-5.9-1.1c0,0,0.6-17.9-3.1-10.2c-3.7,7.7-2.2,11.8-2.2,11.8l10.3,11.8l-5.3,72.1
	h-3.5c0,0,0-8.2-2.6-9.7s-4.5,2-2.5,9.7c1.1,4.2,4.7,8.6,7.7,11.7l-5.4,74.3h-4.9v-9.7h-6.1c0,0,0.5,9.2,0,11.8
	c-0.4,1.9,4.9,7.2,10.1,10.7l-1.9,26.2c0,0-2.8,1-5.1,2c-2.3,1-2.8,7.9-2.8,7.9H515v-5.4h3.6l-3.6-7.7v-3.6h3.6c0,0-1-6.7-11.8-5.6
	c-10.8,1-7.7,5.6-7.7,5.6l-0.4,4.1l-3.7,2.8c0,0,2.6,2.4,4.6,3.4c1.3,0.6,2.1,3.9,2.6,6.4h-10l60.2,20.7l-20.7,46.3l-2.3-0.5v-3.3
	l-20,0.5v2.3l-19.2-1.3l1-17.7l-7.7-8.2c0,0,7.9-3.8,7.7-11.8c-0.3-7.9-8.2-12.3-13.6-12.3s-11.3,4.6-11.3,11.8s9,11.8,9,11.8
	l-5.4,2.3v33.3L410.4,343l-48.9,29.2l16.4,50.2h-50.7l17.2,53.2l36.9,5.6l-46.8,39.9l-2,55.3h-9.2l-1.5,5.6c0,0-23-31.7-34.3-43
	c-11.3-11.3-15.9-9.7-34.3-8.7c-2.5,0.1-4.9,0.7-7.1,1.7c-4.7-2.8-11-3.6-13.4-0.1c-1.9,2.7-0.8,7,0.7,10.4
	c-5.5,6.9-8.3,14.2-8.3,14.2s-31-3-68.8-6.4c0.4-7.3,0.8-20.6-0.3-29.5c-1.5-12.8-22-7.2-23.5,0c-1,4.8-0.7,18.6-0.3,27.3
	c-51.4-4.4-105.7-8.5-110.2-6.3c-8.7,4.1-2,18.4-2,18.4s0,0-4.6,0s-7.7,5.1-10.8,13.8c-3.1,8.7,9.7,14.3,9.7,14.3l-4.6,2V687
	l10.8,0.5c0,0-0.5,4.1,0,10.8s20.5,70.4,20.5,70.4h1079.7c0,0,10.5-9,22.3-21c11.8-12,24.3-17.2,24.3-17.2l26.9-5.6L1191.9,688.8z
	 M147.7,703.2c-15,0-27.1-12.1-27.1-27.1s12.1-27.1,27.1-27.1c15,0,27.1,12.1,27.1,27.1S162.6,703.2,147.7,703.2z M204,707.3
	c-15,0-27.1-12.1-27.1-27.1c0-15,12.1-27.1,27.1-27.1s27.1,12.1,27.1,27.1C231.1,695.2,219,707.3,204,707.3z M569.3,387.9l33.4,2
	l-10.6,65.5l-24.2-1.7L569.3,387.9z M521.2,386.5l35.2,1.4v65.9h-37.2L521.2,386.5z M528,542.8v79.9h-36.9v-79.9H528z M483.3,386.5
	H500v25.3h-16.7V386.5z M435.2,359.4l26.6,5v5h-36.2L435.2,359.4z M463.5,386.5v64.2h-24.9l-14.3-64.2H463.5z M406.5,349.3l17.7,5.5
	l-14.3,14.7h-35.8L406.5,349.3z M370.7,384.8c2,0,41,0,41,0l18.1,65.9h-34.8L370.7,384.8z M356,545.9h14.7v23.5H356V545.9z
	 M240.6,535c-1.1,0.8-2.1,1.6-3,2.5C232.9,529.6,236.5,531.7,240.6,535z M260.4,712.4c-15,0-27.1-12.1-27.1-27.1
	c0-15,12.1-27.1,27.1-27.1c15,0,27.1,12.1,27.1,27.1C287.5,700.3,275.3,712.4,260.4,712.4z M316.7,716.5c-15,0-27.1-12.1-27.1-27.1
	s12.1-27.1,27.1-27.1c15,0,27.1,12.1,27.1,27.1S331.7,716.5,316.7,716.5z M373.1,719.6c-15,0-27.1-12.1-27.1-27.1
	s12.1-27.1,27.1-27.1c15,0,27.1,12.1,27.1,27.1S388,719.6,373.1,719.6z M429.4,720.6c-15,0-27.1-12.1-27.1-27.1
	c0-15,12.1-27.1,27.1-27.1c15,0,27.1,12.1,27.1,27.1C456.5,708.5,444.4,720.6,429.4,720.6z M485.8,723.7c-15,0-27.1-12.1-27.1-27.1
	c0-15,12.1-27.1,27.1-27.1c15,0,27.1,12.1,27.1,27.1C512.9,711.6,500.7,723.7,485.8,723.7z M542.1,727.8c-15,0-27.1-12.1-27.1-27.1
	s12.1-27.1,27.1-27.1s27.1,12.1,27.1,27.1S557.1,727.8,542.1,727.8z M598.5,730.9c-15,0-27.1-12.1-27.1-27.1s12.1-27.1,27.1-27.1
	c15,0,27.1,12.1,27.1,27.1S613.4,730.9,598.5,730.9z M654.8,731.9c-15,0-27.1-12.1-27.1-27.1s12.1-27.1,27.1-27.1
	c15,0,27.1,12.1,27.1,27.1S669.8,731.9,654.8,731.9z"/>
<circle fill="#000000"    cx="542.1" cy="700.7" r="15.3"/>
</svg>
