<?xml version="1.0" encoding="utf-8"?>
<!-- Generator: Adobe Illustrator 18.0.0, SVG Export Plug-In . SVG Version: 6.00 Build 0)  -->
<!DOCTYPE svg PUBLIC "-//W3C//DTD SVG 1.1//EN" "http://www.w3.org/Graphics/SVG/1.1/DTD/svg11.dtd">
<svg version="1.1" id="Слой_2" xmlns="http://www.w3.org/2000/svg" xmlns:xlink="http://www.w3.org/1999/xlink" x="0px" y="0px"
	 viewBox="0 264 1200 265" enable-background="new 0 264 1200 265" xml:space="preserve">
<path fill="#000000"    d="M1193.4,460.3c0-27-24.5-54.2-90.2-55.1v0h-453
	c-1.1-10.5-8.3-18.9-17.7-20.8c-0.4-5.4-1.3-15.8-1.7-23.7c-0.7-11.1-2.4-19.6-2.4-19.6s-7.5,0.1-19.6,0.2v-18.8c0.6-0.2,1-1.5,1-3
	c0-1.7-0.5-3.1-1.2-3.1s-1.2,1.4-1.2,3.1c0,0.6,0.1,1.1,0.2,1.6v20.2c-2.7,0-5.5,0-8.6,0.1v-22.6c1-0.3,1.7-1.2,1.7-2.3
	c0-1.4-1.1-2.4-2.4-2.4s-2.4,1.1-2.4,2.4c0,1.3,1,2.4,2.3,2.4v22.5c-11,0.1-24.3,0.2-38.2,0.3V307c1.6-0.9,2.7-2.8,2.7-5
	c0-3.1-2.2-5.6-4.8-5.6c-2.7,0-4.8,2.5-4.8,5.6c0,2.4,1.3,4.5,3.2,5.3v34.3c-4.6,0-9.2,0.1-13.8,0.1v-32.5h3v-3.4h-1.9v-7.3h1.9
	v-4.6h-4.5l0,0c0-1.9,0-3.4-0.1-3.4s-0.1,1.5-0.1,3.4l0,0h-4.3v4.6h1.7v7.3h-1.7v3.4h2.7v32.5c-4.8,0-9.7,0.1-14.5,0.1v-17.4h1.3
	v-5.7h0c0-0.1,0-0.2,0-0.3c0-1.8-1.2-3.2-2.7-3.2c-0.1,0-0.3,0-0.4,0.1c0-1.4,0-3,0-4.5c0-10.1-0.2-18.2-0.5-18.2s-0.5,8.2-0.5,18.2
	c0,1.7,0,3.3,0,4.9c-0.8,0.6-1.4,1.6-1.4,2.8c0,0.1,0,0.2,0,0.3h-0.9v5.7h1.5v17.5c-2.2,0-4.4,0-6.6,0.1v-29.7h2.9v-8.1h-3.9
	c0-3.8,0-6.7,0-6.7c0,0,0,3,0,6.7h-4v8.1h3V342c-1.9,0-3.8,0-5.7,0.1v-29.8l0,0v-39.7h-1v37.8h-1v31.7c-1.6,0-3.3,0-4.9,0.1v-26.3
	c0.4-0.4,0.7-1.1,0.9-2h0.8v-4.6h-0.1c0-0.6,0.1-1.2,0.1-1.8c0-4.9-1.1-8.8-2.4-8.8s-2.4,3.9-2.4,8.8c0,0.6,0,1.2,0.1,1.8h-0.7v4.6
	h1.4c0.1,0.4,0.3,0.8,0.4,1.2v27.2c-27.6,0.3-49.4,0.6-52.1,0.8c-8.1,0.7-8.4,4.4-9.1,11.8c-0.5,5.8-2.3,22.5-3,29.7
	c-33,2.4-59.9,11-71.7,22.5c-7.3,0.3-15,0.5-21.2,0.5c-11,0-37.6,2.4-59.8,4.8v-8.5l-26.5,11.7c-0.4,0.1-0.8,0.1-1.2,0.2
	c-13.3,1.9-60.2,10.2-89.4,15.4v-4.2h-8.1l-7.1,1.7v5.2c-4.9,0.9-8,1.4-8.8,1.5c-4.4,0.7-5.1-4-5.1-4s-15.2-47.9-17.5-56.4
	c-2.4-8.4-9.1-6.4-9.1-6.4s-7.4,0.7-16,1.5l-0.8-1.7h-4.4v2.2c-8.4,0.8-16.9,1.8-20.6,2.3c-8.4,1.3-6.1,4-6.1,4l-2.6,63.4
	c-4.5,0.7-12.3,2.4-12.3,2.4v11.6c-31.1,2-42.2,9.8-42.2,9.8s3.4,3.6,17.5,7c1.5,2.9,3.2,6.6,3.4,9c0.3,4.4,0,26.7,0,33.1
	s-0.7,10.1,6.1,10.1s45.6,0,54.3,0s9.8-1.7,10.1-2.7s8.4-25.3,9.8-28.7c1.4-3.4,4-5.1,9.1-3.7c1.7,0.4,15.8,3,35.1,6.5v4.6l9.1,3
	h6.1l0.9-4.8c35.1,6.3,79.1,14.1,101.6,18.1c1.1,1.9,3.1,3.9,6.5,4.9c8.1,2.4,15.5,2.7,15.5,2.7s0.8-2,2.6-4
	c29.4,2.9,57.1,1.3,57.1,1.3h751.2c0.1,0,0.2,0,0.2,0c0.2,0,0.3,0,0.5,0h3v-0.1C1146.7,518.9,1193.4,489.9,1193.4,460.3z"/>
</svg>
